<?xml version="1.0" encoding="utf-8"?>
<!-- Generator: Adobe Illustrator 18.0.0, SVG Export Plug-In . SVG Version: 6.00 Build 0)  -->
<!DOCTYPE svg PUBLIC "-//W3C//DTD SVG 1.1//EN" "http://www.w3.org/Graphics/SVG/1.1/DTD/svg11.dtd">
<svg version="1.1" id="Layer_1" xmlns="http://www.w3.org/2000/svg" xmlns:xlink="http://www.w3.org/1999/xlink" x="0px" y="0px"
	 viewBox="0 0 300 45" xml:space="preserve">
<path fill="#D40000" d="M57,3.4c2.7,1,0,3.8-0.3,6.1c-0.3,2.3,0.7,4.1-0.2,6c-0.4-0.3-0.3-1-0.4-1.7c-0.1-0.5-0.3-1.1-0.5-1.6
	c-0.4-1-1-2-1.3-2.9c-0.7-2.5,1.4-3.7,2.7-5.1C57.1,3.9,57.1,3.8,57,3.4z"/>
<path fill="#D40000" d="M53.6,0C53.7,0,53.7,0,53.6,0c0.7,1,0.1,2.6-0.1,3.9c-0.2,1.4-0.6,2.7-0.4,4.3c0.4,3.3,4.2,5.6,3,10
	c0.6-0.1,0.5-0.8,0.7-1.2c0.2-0.5,0.4-0.9,0.5-1.4c0.2-1.3-0.3-2.8-0.2-4.3c0.2-2.9,1.4-4.5,2.7-6.6c0.6-0.9,0.8-1.3,0.3-2.4
	c1.2,0.6,2.1,1.6,2.8,2.8c1,1.7,1.7,3.7,1.5,6.4c-0.4,4.2-3.8,7.9-8.1,8.3c-5.7,0.5-9.9-3.7-10.2-8.5c-0.4-5.2,2.4-8.4,5.8-9.7
	C52.6,1,53.3,1,53.6,0z"/>
<path fill="#FFFFFF" d="M61.1,5.2c0.9,1,1.5,2.3,1.7,3.9c0.5,3.9-1.7,7.2-4.5,8.4c-0.1,0-0.1,0-0.1,0.1c0-0.6,0.4-1.3,0.5-1.9
	c0.2-1.5-0.3-3.1-0.2-4.5C58.8,8.5,60.2,7.1,61.1,5.2z"/>
<path fill="#FFFFFF" d="M57.4,4c1.2,0.7,0.3,2.3-0.3,3.5c-0.3,0.8-0.7,1.7-0.7,2.8c0,1.4,0.3,2.5,0.2,4.1c-0.2-1-0.5-1.9-0.9-2.8
	c-0.4-0.9-0.9-1.7-1.1-2.5c-0.3-1.4,0.4-2.7,1.1-3.4C56.3,5.2,57.2,4.9,57.4,4z"/>
<path fill="#FFFFFF" d="M52.1,2.7C52.2,2.7,52.2,2.7,52.1,2.7c-0.1,2.1-0.7,3.8-0.5,5.7c0.4,3.5,4.2,5.7,2.9,9.8
	c-4.6-0.4-7.5-4.4-7.1-8.9C47.7,6,49.6,3.8,52.1,2.7z"/>
<path fill="#070606" d="M57.6,26c1.1-1.5,2.4-2.7,3.9-4c1-0.9,1.5-1.9,3.7-1.5c-0.3,0.7-2.2,4-0.5,4.5c0.6,0.2,1.7-0.4,2.1-0.8
	c0.8-0.9,1-2.4,1.7-3.2c-0.6,0-1.3,0-1.9,0c0.1-0.7,1.4-0.2,2-0.4c0.8-1,1.3-2.2,1.9-3.3c1,0.1,1.6-0.2,2.5-0.1
	c0.4,0.1-0.1,0.5-0.2,0.7c-0.4,0.8-1,1.9-1.4,2.7c1.1,0,2.1,0,3.2,0c-0.5,0.7-2.3,0.2-3.5,0.4c-0.9,1.4-1.6,3-2.4,4.5
	c-0.8,1.4-2,2.9-1.7,5c2.3,0.3,3.8-2,5-3.3c3.8-4.5,6.3-10.8,9.3-16.1c1,0,1.8-0.2,2.9-0.1c-2.7,5-5.4,9.9-8.3,14.6
	c0.8-0.7,1.6-2,2.9-3.2c1-1,3.6-3.1,4.9-1.5c0.6,0.7,0.4,2,0.1,2.9c-0.4,1.1-1.4,2.2-2,3.2c-0.7,1-1.7,2.4-0.7,3.6
	c1.8-0.5,2.9-2.1,3.9-3.3c1.1-1.3,2.1-2.7,3-4.2c0.5,0.2-0.1,0.6-0.2,0.8c-1.2,1.9-3.1,4.5-4.8,5.9c-0.7,0.6-2.5,1.9-3.6,1.1
	c-0.4-0.3-0.6-0.8-0.7-1.2c-0.7-3.5,3.9-5.5,3-8.6c-2.2,0.4-3.7,2.4-4.9,3.9c-1.2,1.6-2.2,3.6-3,5.7c-0.9,0-1.8,0.2-2.9,0.1
	c0.8-1.5,1.5-3,2.4-4.4c-1.7,1.2-3.8,5.3-7,4.8c-2.8-0.5-0.7-5,0.4-6.4c-1,0.8-4,1.7-4.8-0.2c-0.2-0.6-0.2-1.7,0.1-2.5
	c-3,2-4.9,5.2-6.5,8.7c-1-0.1-1.6,0.2-2.6,0.1c0.9-2,1.9-3.9,3-5.7c-0.9,0.7-1.9,2.3-3.2,3.7c-1.6,1.6-5.9,4.4-5.7,0
	c-1.2,1-3.4,3.4-5.4,1.9c-1.1-0.8-0.9-3.1-0.4-4.5c-1.9,1.4-4.3,5.2-8.2,5.1c-2-0.1-3.6-1.7-3-4.5c-1.3,1.2-4.1,5.9-7.1,4.2
	c-0.6-0.4-1-1.5-1.1-2.3c-0.3-2.9,1.3-5.6,2-7.7c-1.1,0-2.2,0-3.3,0c-1.2,1.9-2.2,4.1-3.8,5.9c-1.5,1.8-3.4,3.6-5.8,3.9
	c-2.3,0.3-4.7-0.6-4.6-2.5c0-0.9,0.8-1.6,1.5-1.5C9.2,26.9,9,29.1,8,29.5c0.7,1.6,3.1,1.2,4.2,0.2c1.4-1.2,2.3-3.3,3.5-5.2
	c3-5.2,5.7-12,12-13.7c-5.5,0-13.3,1.2-15.3,5.4c-0.7,1.4-0.7,3.8,1,4.4c2.6,0.3,4.5-1.4,4.5-3.5c0-0.7-0.4-1.2-0.4-1.8
	c3.3,4.6-7.1,9.1-7.6,3.1c-0.2-1.9,1-3.5,2.3-4.5c2.9-2.3,8.1-3.2,13-3.5c1.3-0.1,2.7,0.1,3.8-0.1c0.8-0.2,1.8-0.9,2.5-0.1
	c-0.2,0.9-1.3,0.5-2,0.6c-4.7,0.6-6.4,6.2-8.6,9.5c0.8,0.3,2.2,0,3.2,0.1c1.4-2.2,2.6-4.2,5.1-6.4c1-0.9,1.9-1.8,3.2-2.5
	c1.3-0.7,4.9-2.3,5.5-0.5c0.2,0.8-0.3,1.6-1,1.7c-1,0-0.9-1.1-1.7-1.8c-3,0.7-5.1,3.7-7,6.7c-1.7,2.7-3.5,6.4-3.8,9.8
	c-0.1,1.3,0.1,2.5,1.1,2.7c1.3,0.2,2.3-1.1,3.1-2c0.9-1,1.5-1.9,2.1-3c1.4-2.4,3.5-4.5,6.3-4.8c1.5-0.1,3.2,0.5,2.7,2.5
	c-0.3,1.2-2.2,1.9-3.2,2.4c-1.4,0.6-2.8,1.1-4,1.4c-0.4,4.9,3.6,3.8,6.1,1.8c1.1-0.9,2.2-2.1,3-3.1c1-1.3,1.4-2.3,2.7-3.3
	c1.6-1.3,5.1-2.9,5.9,0c0.3-0.3,0.3-0.9,0.7-1.1c0.7-0.2,1.8-0.1,2.6-0.2c-0.9,1.5-1.7,3-2.6,4.6c-0.8,1.4-2.1,3-1.8,5.1
	c1.3,0.3,2.2-0.8,3-1.5c2.3-2.2,4.5-4.9,5.9-8c1-0.1,2-0.1,3-0.2C60,22.6,58.7,24.2,57.6,26z"/>
<path fill="#FFFFFF" d="M49,21c0.6,2-0.1,3.8-1.1,5.5c-0.6,1.1-1.4,2.4-2,2.9c-0.4,0.3-1.2,0.8-1.8,0.7c-1.5-0.3-0.9-3.4-0.4-4.6
	c0.8-2,2.1-4,3.7-4.6C47.9,20.6,48.6,20.6,49,21z"/>
<path fill="#FFFFFF" d="M37.5,20.8c0.3,3.2-2.5,4.6-5,5.4c0.5-2.2,2.2-4.6,4-5.5C36.7,20.6,37.2,20.7,37.5,20.8z"/>
<path fill="#070606" d="M103.9,21.4c0.2,2.8,1.1,4.9,2.4,6.5c1.8-1.1,3.4-5.4,5.7-6.4c1-0.4,2.5-0.1,2.6,1.2c0.1,1.1-1.3,2-2.1,1.3
	c-0.3-0.5-0.3-1.3,0-1.8c-1.6,0-2.4,1.5-3.2,2.6c-0.9,1.1-1.8,2.3-2.7,3.2c1.3,1.6,3.2,2.7,5.8,2.4c2.5-0.3,4-2.4,5-4
	c0,0.6-0.4,1.2-0.7,1.7c-1.4,1.7-3.7,3.2-6.5,3.2c-2,0-3.9-0.6-5.2-1.7c-1.4,0.7-2.3,1.7-4.2,1.7c-3.2,0-4.6-3.6-3-6.3
	c1-1.7,2.8-2.4,4.3-3.2c0.2-2.7,2-5.9,4.5-6.5c1-0.3,2.7,0.1,3,1.2C110.2,19.4,105.9,20.5,103.9,21.4z"/>
<path fill="#070606" d="M159.1,14.3c1.9-0.4,2.1,2.7,0.6,3C158,17.7,157.1,14.8,159.1,14.3z"/>
<path fill="#070606" d="M224.2,24.5c-0.1,0-0.1,0-0.1,0.1c1.2-1,2.6-3.5,4.5-4.2c1.7-0.6,3.4,0.2,3.7,1.8c0.4,2.1-1.2,4.2-2.1,5.4
	c3.1-0.8,5.2-2.6,7-4.6c0,0.8-0.9,1.2-1.3,1.7c-1,1-2.2,1.8-3.7,2.5c-0.7,0.3-1.5,0.5-2.3,0.8c-0.8,0.4-1.5,1.2-2.4,1.7
	c-1.3,0.7-2.6,1.6-4.6,1c-0.5-2.5,2.8-2.1,4.6-2.6c0.7-1.3,2.3-3.2,2.1-5.4c-0.3-3.4-3.7,0.1-4.6,1.3c-2.9,3.6-5.1,8.5-7.3,12
	c-0.9,0-1.8,0-2.7,0c2.1-3.7,4.3-7.2,6.4-10.8c-1.2,0.4-2.2-0.2-2.6-1c-0.5,3.3-3.9,7.4-7.7,7c-2-0.2-3.4-2.2-2.6-4.9
	c-0.8,0.6-1.6,1.7-2.6,2.7c-0.8,0.8-1.8,2.3-3.5,2c-1.4-0.2-1.6-2.1-1.2-3.6c0.6-2.1,3.7-4.1,2.9-6.4c-1.2,0-2.1,0.9-2.9,1.5
	c-2.2,2.1-3.9,4.9-5,8.1c-0.9,0-1.8,0.2-2.9,0.1c3.4-6.7,7-13.1,10.5-19.8c1,0,1.8-0.2,2.9-0.1c-2.8,4.9-5.5,10-8.4,14.8
	c1.6-1.4,3.5-5,6.1-5.4c1.9-0.3,2.4,1.3,1.9,3c-0.4,1.2-1.2,2.2-1.9,3.3c-0.7,1.1-1.7,2.3-1.1,3.7c1.4,0.1,2.3-1.2,3.1-2
	c0.4-0.4,0.8-0.9,1.2-1.4c0.4-0.5,0.9-0.9,1.2-1.4c0.4-0.6,0.5-1.2,0.8-1.7c1.1-1.6,4.6-4.9,7.7-3.3c0.3,0.1,1.1,0.9,1.3,1.3
	c0.6,1.2,0.5,4.4,3,3c0.5-0.3,1.1-1.6,1.5-2.4c1.5-2.5,3.1-5.1,4.4-7.4c1.1,0.1,1.8-0.2,2.9-0.1C228.4,18.1,226.3,21.3,224.2,24.5z"
	/>
<path fill="#070606" d="M166.6,26c-1.1,0.9-3.1,4.1-5.2,4.9c-0.8,0.3-2.1,0.4-2.6-0.4c-1-1.4,0.3-3.5,0.8-4.5
	c-0.8,0.5-1.6,1.9-2.7,3c-1.3,1.2-5.3,3.9-5.5,0.2c-0.1-1.9,1.5-3.5,2-4.9c-0.8,0.5-1.8,1.4-3.2,1.3c-1.7-0.1-2.5-1.7-1.8-3.6
	c-1.4,0.8-2.8,2.2-3.8,3.7c-1.1,1.5-1.9,3.2-2.7,4.9c-1-0.1-1.6,0.2-2.6,0.1c1.7-3.3,3.4-6.6,5.1-9.9c1-0.1,2-0.1,3-0.2
	c-0.9,1.9-2.1,3.6-3.3,5.2c1.2-1.1,2.4-2.7,3.9-4c1-0.9,1.7-1.7,3.8-1.4c-0.6,0.7-2.2,4-0.6,4.5c0.5,0.2,1.3-0.3,1.8-0.6
	c1.1-0.8,1.8-2.5,2.4-3.7c0.9,0,1.7,0,2.6,0c-0.8,1.6-1.6,3.1-2.5,4.6c-0.8,1.5-2.1,3-1.9,5c1.6,0.3,3-1.2,3.9-2.3
	c0.9-0.9,2.1-2.3,2.9-3.5c0.7-1.1,1.1-2.3,1.8-3.5c1.8-3.2,3.7-6.9,5.5-10.1c1-0.1,1.9-0.2,2.9-0.2c-2.7,4.8-5.2,9.4-7.9,14.3
	c-0.8,1.5-2.2,3.2-1.9,5.2c1.2,0.3,2-0.7,2.7-1.3c4.9-4.5,7.7-12,11.2-18c1-0.1,1.9-0.2,3-0.2c-2.7,4.7-5.3,9.4-8,14.3
	c-0.9,1.5-2.2,3.2-1.9,5.2c1.1,0.4,1.9-0.5,2.5-1.1c2-1.7,3.7-4,5.1-6.2c0.4,0.3-0.2,0.7-0.4,1.1c-1.3,2.1-4.2,5.9-6.5,6.8
	c-1.1,0.4-2.6,0.2-2.9-1.1c-0.3-1.6,0.6-2.6,1.1-3.7C166.6,26.1,166.6,26,166.6,26z"/>
<path fill="#070606" d="M199,15.7c-0.4-0.3,0.2-0.7,0.4-1.1c0.5-1.4,0.4-3.8-1.5-4c-3.6-0.4-3.7,6.3-3.9,9.4c-0.3,4.2-1,7.8-3.5,9.8
	c-1.4,1.2-3.4,1.8-6.2,1.5c-1.9-0.2-4.2-1.5-4.6-3.9c-0.3-1.9,0.3-4.4,1.9-4.4c1.3,0,2,1.7,0.8,2.7c-0.2,0.5-0.9-0.1-1,0.4
	c-1.1,3.1,1.6,5,3.9,5c5.7,0,5.8-7.1,6.3-12.3c0.4-4.1,1.8-7.5,5.4-8.4c2.3-0.6,5.1,0.6,4.9,3.1C201.7,14.8,200.7,15.6,199,15.7z"/>
<path fill="#070606" d="M136.6,7.9c0.1,0,0.1,0,0.1,0.1c-0.9,0.5-2.2,1.9-1.5,4c2.5-1.2,7.3-3,9.9-1.7c1.2,0.6,1.8,2.6,0.7,3.9
	c-1.4,1.8-6.2,2.1-8.4,0.7c-0.2-0.1-1.5-1.7-1.7-1.7c-0.2,0-1.3,1.1-1.7,1.5c-1.4,1.8-3.7,5.9-2.4,8.7c1,2.1,4.1,0.8,5.2-0.4
	c1.1-1.1,1.3-2.5,2.1-3.8c0.6-0.3,1.6-0.8,2.5-0.5c0,1-0.7,1.9-1.2,2.9c-1.9,4-4.4,8.7-9.8,9.3c-2.4,0.2-4.3-0.5-5.1-2
	c-0.5-0.9-0.6-4.7,1.8-3.9c0.5,0.1,0.8,0.8,0.8,1.3c0,0.9-0.7,1-1.1,1.5c0,2.4,1.8,3.4,4.2,2.6c2.9-1,4.8-5.1,6.1-7.4
	c-1.2,0.9-2.7,2.4-5,2.4c-2,0-3.2-1.5-3.4-3.3c-0.6-4.8,3.5-8.3,6.2-10.1C134.5,10.2,135.2,8.4,136.6,7.9z"/>
<path fill="#FFFFFF" d="M101.9,22.1c-0.1,3,1.2,5.6,2.7,7.4c-2.9,1.9-5.5-0.3-5.5-3.2C99.2,24.4,100.3,22.8,101.9,22.1z"/>
<path fill="#FFFFFF" d="M216,20.4c0.6,0.4,0.7,1.4,0.6,2.5c-0.1,1.5-0.9,3.3-1.8,4.9c-0.6,1-2.1,3.5-3.7,3c-1.4-0.5-0.4-3.8,0.1-5.2
	c1-2.4,2-3.9,3.5-4.9C214.9,20.5,215.4,20.3,216,20.4z"/>
<path fill="#FFFFFF" d="M103.9,21c0.1-1.4,0.5-3.2,1.2-4.3c0.4-0.7,2.2-2.1,2.6-0.4C108.2,18.5,105.7,20.7,103.9,21z"/>
<path fill="#FFFFFF" d="M135.9,13c1.2-0.9,3.6-2.5,5.8-2.7c2.5-0.2,3.9,1.5,2.4,3.6C142.2,16.3,136.7,15.8,135.9,13z"/>
<g>
	<path fill="#070606" d="M1.1,11H0v-0.4h2.8V11H1.6v3.3H1.1V11z"/>
	<path fill="#070606" d="M3.7,10.6v1.6h1.8v-1.6H6v3.7H5.5v-1.8H3.7v1.8H3.2v-3.7H3.7z"/>
	<path fill="#070606" d="M8.8,12.6H7.3v1.4h1.6v0.4H6.8v-3.7h2V11H7.3v1.2h1.5V12.6z"/>
</g>
</svg>
